<svg viewBox="0 0 64 64" xmlns="http://www.w3.org/2000/svg"><g isolation="isolate"><g id="_35-Backhoe" data-name="35-Backhoe"><path d="m48 23v5h-2-2v-5h2z" fill="#58646e"/><g fill="#f7ca27"><path d="m10.29 31.71-4.29 4.29h-3v-6h6.59c.34.82.36.88.7 1.71z"/><path d="m15 21.32-10 8.67v.01h-2v-3.01l13-12.99h4v2.99l-1.07.93z"/><path d="m19 18v13h-1l-2 2-2-2v-4l1-1v-4.68l3.93-3.4z"/></g><path d="m37 34v1h-2l-5-5h-3.05v-9h7.02l3.03 9z" fill="#d9edf6"/><path d="m34.46 22.45-7.51 7.51v-8.96h7.02z" fill="#d9edf6"/><path d="m37 30v5h-2l-5-5h-.27l5.44-5.44z" fill="#d9edf6"/><path d="m45 42a1 1 0 1 0 -1 1 1 1 0 0 0 1-1zm-1-4a4 4 0 1 1 -4 4 4 4 0 0 1 4-4z" fill="#58646e"/><path d="m32 40a5.9 5.9 0 0 1 -.31 1.89 5.994 5.994 0 0 1 -11.38 0 5.9 5.9 0 0 1 -.31-1.89 6 6 0 0 1 12 0zm-4 0a2 2 0 1 0 -2 2 2.006 2.006 0 0 0 2-2z" fill="#58646e"/><path d="m59 35 2 9h-5l-3-3 1-1 3.5-3.5z" fill="#f7ca27"/><path d="m37 34v-4h3l6 2 3 1v2h1l2-2 1.98-.02 3.52 3.52-3.5 3.5-2-2-4 4a4 4 0 0 0 -8 0h-8l-.31-.11a5.9 5.9 0 0 0 .31-1.89 6 6 0 0 0 -12 0 5.9 5.9 0 0 0 .31 1.89l-.31.11h-4v-9l2-2h5v-10h3.95v9h3.05l5 5h2z" fill="#f7ca27"/><circle cx="44" cy="42" r="1"/><g fill="#f7ca27" opacity=".5" mix-blend-mode="multiply"><path d="m20.31 41.89a5.94 5.94 0 0 1 .5-4.89h-4.81v5h4z"/><path d="m31.189 37a5.94 5.94 0 0 1 .5 4.89l.311.11h8a4 4 0 0 1 8 0l4-4 2 2 3-3z"/></g><path d="m61 44-.667-3h-7.333l3 3z" fill="#f7ca27" opacity=".5" mix-blend-mode="multiply"/><path d="m37 30v5h-2l-5-5h-.27l5.44-5.44z" fill="#b4e2f1"/><path d="m34.46 22.45-7.51 7.51v-2.91l6.05-6.05h.97z" fill="#b4e2f1"/><path d="m3 33v3h3l3-3z" fill="#f7ca27" opacity=".5" mix-blend-mode="multiply"/><path d="m32.306 43h6.8a4.985 4.985 0 0 0 9.852-.539l3.042-3.047.586.586-.293.293a1 1 0 0 0 0 1.414l3 3a1 1 0 0 0 .707.293h5a1 1 0 0 0 .976-1.217l-1.729-7.783h.753a1 1 0 0 0 0-2h-1.979a1.275 1.275 0 0 0 -.229.021h-.018a1 1 0 0 0 -.491.278l-.783.783-2.813-2.813a1.071 1.071 0 0 0 -.717-.293l-1.98.024a1 1 0 0 0 -.7.293l-1.29 1.293v-.586a1 1 0 0 0 -.684-.948l-2.316-.772v-2.28h1a1 1 0 0 0 1-1v-5a1 1 0 0 0 -1-1h-1v-.586l.707-.707a1 1 0 0 0 -1.414-1.414l-1 1a1 1 0 0 0 -.293.707v1h-1a1 1 0 0 0 -1 1v5a1 1 0 0 0 1 1h1v1.613l-4.684-1.561a1 1 0 0 0 -.316-.052h-2.281l-2.357-7h.638a1 1 0 0 0 0-2h-13a1 1 0 0 0 -1 1v9h-2v-11.687l.656-.568a1 1 0 0 0 .344-.755v-2.99a1 1 0 0 0 -1-1h-4a1 1 0 0 0 -.707.293l-13 12.99a1 1 0 0 0 -.293.707v9.01a1 1 0 0 0 1 1h3a1 1 0 0 0 .707-.293l4.293-4.29a1 1 0 0 0 .218-1.086l-.7-1.714a1 1 0 0 0 -.928-.617h-1.92l6.33-5.486v2.072l-.707.707a1 1 0 0 0 -.293.707v4a1 1 0 0 0 .293.707l1.707 1.707v8.586a1 1 0 0 0 1 1h3.694a6.971 6.971 0 0 0 12.612 0zm12.694-19h2v3h-2zm-1 21a3 3 0 1 1 3-3 3 3 0 0 1 -3 3zm15.753-2h-3.339l-2-2 4-4.005zm-23.753-12.836v3.836h-.586l-4.707-4.707a1 1 0 0 0 -.707-.293h-2.05v-7h5.3zm-26.887 1.309-3.527 3.527h-1.586v-4h4.919zm-5.113-2.473v-1.6l12.414-12.4h2.586v1.534l-14.385 12.466zm14-8.953v9.953a1 1 0 0 0 -.707.293l-1.293 1.293-1-1v-3.172l.707-.707a1 1 0 0 0 .293-.707v-4.22zm-1 13.367 1.414-1.414h4.586a1 1 0 0 0 1-1v-9h1.95v8a1 1 0 0 0 1 1h2.636l4.707 4.707a1 1 0 0 0 .707.293h2a1 1 0 0 0 1-1h3a1 1 0 0 0 0-2h-3v-2h1.838l8.162 2.721v1.279a1 1 0 0 0 1 1h1a1 1 0 0 0 .707-.293l1.711-1.707 1.152-.012 2.516 2.512-2.086 2.086-1.293-1.293a1 1 0 0 0 -1.414 0l-2.713 2.713a5 5 0 0 0 -9.48.994h-6.181a7 7 0 1 0 -13.838 0h-2.081zm13.74 8.164a4.994 4.994 0 0 1 -9.483-.01 4.858 4.858 0 0 1 -.257-1.568 5 5 0 0 1 10 0 4.858 4.858 0 0 1 -.257 1.568z"/><path d="m26 37a3 3 0 1 0 3 3 3 3 0 0 0 -3-3zm0 4a1 1 0 1 1 1-1 1 1 0 0 1 -1 1z"/><path d="m35 40h2a1 1 0 0 0 0-2h-2a1 1 0 0 0 0 2z"/><path d="m61 47h-58a1 1 0 0 0 0 2h58a1 1 0 0 0 0-2z"/></g></g></svg>